<svg version="1.2" xmlns="http://www.w3.org/2000/svg" viewBox="0 0 1288 424" width="800" height="263">
	<title>apecjob-logo設計(CS5)(1)-ai</title>
	<style>
		.s0 { fill: #3b315d } 
		.s1 { fill: #ec1c24 } 
	</style>
	<g id="圖層 1">
		<g id="&lt;Group&gt;">
			<path id="&lt;Compound Path&gt;" fill-rule="evenodd" class="s0" d="m294.7 111h15.2l67.8 152.1h-22.2l-20.1-44.8h-64.5l-18.9 44.8h-22.3zm31.8 88l-24.4-54.8-22.6 54.8z"/>
			<path id="&lt;Compound Path&gt;" fill-rule="evenodd" class="s0" d="m390.3 313.9v-150.4h34.5q26.4 0 41.2 13.2 14.8 13.2 14.8 36.9 0 22.4-13.9 36.8-13.9 14.4-35.4 14.4-9.5 0-21.1-4.2v53.3zm34.1-132h-14v61.3q9.1 4.6 19 4.6 13.9 0 22.7-9.6 8.8-9.6 8.8-24.8 0-9.7-4.2-17.2-4.1-7.5-11.3-10.9-7.2-3.4-21-3.4z"/>
			<path id="&lt;Compound Path&gt;" fill-rule="evenodd" class="s0" d="m587.3 215h-70.1q0.8 14.3 9.6 22.8 8.9 8.4 22.8 8.4 19.5 0 36-12.1v19.2q-9.1 6.1-18.1 8.7-8.9 2.6-20.9 2.6-16.5 0-26.6-6.8-10.2-6.8-16.3-18.4-6.2-11.5-6.2-26.7 0-22.7 12.9-36.9 12.9-14.3 33.5-14.3 19.8 0 31.6 13.9 11.8 13.9 11.8 37.1zm-69.6-11.8h50.1q-0.8-11.8-7-18.2-6.3-6.3-16.9-6.3-10.6 0-17.4 6.3-6.8 6.4-8.8 18.2z"/>
			<path id="&lt;Compound Path&gt;" class="s0" d="m683.3 239.8v19.5q-14.8 5.5-29 5.5-23.4 0-37.3-13.8-13.9-13.9-13.9-37.2 0-23.5 13.5-37.9 13.6-14.4 35.6-14.4 7.7 0 13.8 1.5 6.2 1.5 15.2 5.5v21q-15-9.6-27.8-9.6-13.3 0-21.8 9.4-8.6 9.4-8.6 23.9 0 15.2 9.3 24.2 9.2 9 24.9 9 11.4 0 26.1-6.6z"/>
			<g id="&lt;Group&gt;">
				<path id="&lt;Compound Path&gt;" class="s1" d="m708.6 111.8h21.7v149.3q0 20.9-4.3 30.9-4.3 10.1-13.8 16.1-9.5 6-22.9 6-2.1 0-7.1-0.7l-4-20.1h5.5q9.4 0 14.3-2.3 4.9-2.3 7.8-8 2.8-5.7 2.8-24.4z"/>
				<path id="&lt;Compound Path&gt;" fill-rule="evenodd" class="s1" d="m804.3 163.3q22.8 0 37.8 14.6 15.1 14.7 15.1 36.9 0 21.5-15.3 35.8-15.3 14.2-38.4 14.2-22.4 0-37.5-14.4-15-14.5-15-36.1 0-21.9 15.2-36.5 15.2-14.5 38.1-14.5zm-1 17.7q-14.2 0-23.3 9.3-9.1 9.3-9.1 23.7 0 14.3 9.3 23.4 9.3 9 23.9 9 14.5 0 23.8-9.1 9.2-9.2 9.2-23.5 0-14.2-9.6-23.5-9.6-9.3-24.2-9.3z"/>
				<path id="&lt;Compound Path&gt;" fill-rule="evenodd" class="s1" d="m878.2 111.8h19.7v58.8q12.8-9.3 27.3-9.3 18.9 0 30.9 14.3 12 14.3 12 36.7 0 24-14.3 38.3-14.4 14.2-38.4 14.2-9.6 0-20.3-2-10.6-2.1-16.9-5.2zm19.7 77.6v53.9q10 3 20.7 3 13.1 0 21.3-9.3 8.3-9.3 8.3-23.9 0-14.8-7.7-24.1-7.8-9.4-20.2-9.4-11.1 0-22.4 9.8z"/>
				<path id="&lt;Path&gt;" class="s1" d="m953 298.9h-193.1v-18h193.1z"/>
			</g>
		</g>
	</g>
</svg>