<?xml version="1.0" standalone="no"?>
<!DOCTYPE svg PUBLIC "-//W3C//DTD SVG 20010904//EN"
 "http://www.w3.org/TR/2001/REC-SVG-20010904/DTD/svg10.dtd">
<svg version="1.0" xmlns="http://www.w3.org/2000/svg"
 width="93.000000pt" height="93.000000pt" viewBox="0 0 93.000000 93.000000"
 preserveAspectRatio="xMidYMid meet">
<metadata>
Created by potrace 1.14, written by Peter Selinger 2001-2017
</metadata>
<g transform="translate(0.000000,93.000000) scale(0.100000,-0.100000)"
fill="#000000" stroke="none">
<path d="M481 803 c-58 -29 -73 -101 -30 -147 15 -16 16 -21 4 -32 -7 -8 -16
-14 -19 -14 -12 0 -44 -39 -52 -62 -10 -32 -12 -181 -3 -206 8 -21 77 -48 109
-43 12 1 12 0 1 -7 -8 -6 -25 -6 -45 0 -49 16 -136 61 -136 72 0 5 -3 7 -6 3
-7 -7 -42 22 -55 45 -7 14 -6 16 6 12 8 -4 15 -13 15 -21 0 -8 5 -11 10 -8 6
3 10 2 10 -3 0 -4 17 -18 38 -30 l38 -21 -1 96 c-1 72 2 103 15 129 10 19 14
31 9 28 -17 -10 -22 28 -7 55 15 28 16 36 3 64 -10 23 -54 44 -82 39 -26 -4
-63 -46 -63 -71 0 -9 7 -27 16 -40 15 -22 15 -24 -15 -53 -17 -17 -32 -38 -32
-47 -2 -27 3 -56 10 -61 12 -8 21 -40 12 -40 -19 0 -54 106 -55 170 -1 28 -9
56 -21 72 -25 35 -35 35 -37 1 -7 -120 14 -201 74 -285 18 -27 18 -28 1 -47
-10 -11 -30 -22 -45 -26 -15 -4 -52 -33 -82 -65 -30 -32 -58 -55 -61 -52 -3 3
-5 0 -5 -6 0 -17 60 -82 76 -82 8 0 17 7 20 15 4 8 10 12 15 9 5 -3 9 -1 9 5
0 6 20 29 45 52 25 23 45 51 45 62 0 19 34 57 52 57 5 0 24 -11 41 -23 39 -29
112 -56 163 -62 22 -2 41 -5 44 -6 3 -1 8 -1 13 0 4 1 25 3 46 5 68 6 145 39
209 87 29 23 102 113 102 128 0 6 5 11 12 11 6 0 9 3 6 6 -4 3 0 21 8 40 16
39 26 134 17 176 l-6 28 -23 -27 c-13 -16 -24 -32 -25 -38 0 -5 -2 -26 -4 -45
-8 -92 -31 -143 -94 -207 -54 -56 -120 -92 -180 -99 -27 -3 -23 5 5 10 11 3
31 9 46 15 l27 10 -2 101 c-1 55 1 100 6 100 4 0 7 -43 7 -95 0 -52 4 -95 9
-95 10 0 84 70 114 109 42 53 37 100 -17 150 -23 22 -24 25 -9 36 22 17 19 73
-6 98 -46 46 -136 3 -125 -60 3 -15 10 -33 16 -41 9 -10 9 -15 -1 -21 -15 -10
-15 -19 5 -48 16 -26 4 -32 -16 -8 -7 8 -9 15 -4 15 5 0 -7 14 -26 30 -19 16
-39 30 -44 30 -5 0 0 10 12 23 55 59 29 137 -53 161 -11 3 -35 -2 -54 -11z
m49 -513 c0 -5 -2 -10 -4 -10 -3 0 -8 5 -11 10 -3 6 -1 10 4 10 6 0 11 -4 11
-10z m30 0 c0 -5 -2 -10 -4 -10 -3 0 -8 5 -11 10 -3 6 -1 10 4 10 6 0 11 -4
11 -10z"/>
</g>
</svg>
